<svg>
 <symbol id="sound" width="41" height="41" viewBox="0 0 41 41" xmlns="http://www.w3.org/2000/svg">
  <g clip-path="url(#clip0_46606_135)">
   <path  d="M12.5923 0.788452C6.0838 0.788452 0.788452 6.52513 0.788452 13.6081C0.813499 15.2504 1.26379 16.8582 2.0954 18.2746C2.48837 18.9449 2.82485 19.6468 3.10135 20.373C3.28473 20.9068 3.10872 21.498 2.6633 21.8446C1.88835 22.4641 1.43928 23.404 1.44422 24.3962C1.44111 25.4864 1.9801 26.5069 2.88233 27.1189C3.20669 27.3393 3.40398 27.7033 3.41153 28.0954V33.577C3.41153 37.1929 6.05888 40.1347 9.31347 40.1347C12.5681 40.1347 15.2154 37.1929 15.2154 33.577C15.2054 30.8762 16.3799 28.3068 18.4287 26.5471C22.2694 23.3425 24.4615 18.5777 24.3962 13.576C24.3962 6.52513 19.1008 0.788452 12.5923 0.788452ZM17.5762 25.551C15.2357 27.5594 13.8934 30.4929 13.9039 33.577C13.9039 36.4696 11.8441 38.8231 9.31347 38.8231C6.78285 38.8231 4.72307 36.4696 4.72307 33.577V28.0954C4.71245 27.2832 4.31391 26.5251 3.65089 26.0559C3.09063 25.69 2.75372 25.0654 2.75576 24.3962C2.75126 23.793 3.02755 23.222 3.50334 22.8512C4.37644 22.1517 4.70981 20.9754 4.33355 19.9219C4.03153 19.1275 3.66367 18.3598 3.23382 17.6267C2.51115 16.3975 2.12043 15.0017 2.09999 13.576C2.09999 7.24845 6.80711 2.09999 12.5923 2.09999C18.3775 2.09999 23.0846 7.24845 23.0846 13.576C23.1447 18.1933 21.1213 22.592 17.5762 25.551Z" />
   <path d="M12.5923 4.06729C8.9377 4.06729 5.82148 6.6589 4.61158 10.2814C4.60306 10.303 4.59715 10.324 4.5906 10.3469C4.24485 11.3989 4.06778 12.4989 4.06598 13.6061C4.06598 14.3931 4.06598 16.7997 5.56966 18.3034C5.82697 18.5519 6.23598 18.5484 6.48893 18.2954C6.74189 18.0425 6.74544 17.6335 6.49692 17.3762C5.95817 16.7773 5.61221 16.03 5.50408 15.2318C5.60966 15.2252 5.71393 15.2167 5.82344 15.2167C8.83343 15.2154 11.2808 17.9696 11.2808 21.3534C11.2808 21.6675 11.2657 21.9626 11.2414 22.2538C10.9149 22.6024 10.5676 22.9309 10.2014 23.2374C8.29139 24.8016 7.2328 27.1762 7.34614 29.6423C7.34614 30.0045 7.63974 30.2981 8.00191 30.2981C8.36409 30.2981 8.65768 30.0045 8.65768 29.6423C8.54487 27.563 9.43359 25.5552 11.0486 24.2408C13.3623 22.465 14.6711 19.6774 14.5596 16.763C14.5596 12.6579 11.4709 9.31345 7.67403 9.31345C7.23785 9.3146 6.80296 9.36075 6.37626 9.45117C7.51611 7.0315 9.91876 5.45745 12.5923 5.37883C16.5696 5.37883 19.8058 9.06885 19.8058 13.6048C19.8573 17.1782 18.3076 20.5872 15.5813 22.8977C15.4908 22.9758 15.3905 23.0597 15.2816 23.1509C13.9766 24.2355 11.2624 26.4953 10.6289 32.1933C10.5906 32.5523 10.8498 32.8748 11.2086 32.9146C11.2325 32.9181 11.2566 32.9203 11.2808 32.9212C11.6148 32.9209 11.8952 32.6695 11.9319 32.3376C12.5071 27.1635 14.8567 25.2087 16.1197 24.1588C16.2358 24.0617 16.3427 23.9725 16.4384 23.8899C19.4567 21.3331 21.1731 17.5601 21.1173 13.6048C21.1173 8.34554 17.2929 4.06729 12.5923 4.06729ZM7.67403 10.625C10.7476 10.625 13.2481 13.3792 13.2481 16.763C13.2778 18.0038 13.0314 19.2358 12.5267 20.3697C12.0867 16.7237 9.25247 13.9038 5.82476 13.9038C5.67327 13.9038 5.52769 13.915 5.38145 13.9255C5.38145 13.7996 5.38145 13.6901 5.38145 13.6048C5.38169 12.7278 5.50712 11.8554 5.75393 11.0139C6.36201 10.7587 7.0146 10.6266 7.67403 10.625Z" />
   <path d="M33.577 15.8712C33.6273 13.8043 34.5038 11.8439 36.0105 10.4283C36.1936 10.2657 36.2708 10.0148 36.2109 9.77745C36.151 9.54012 35.9639 9.35591 35.7257 9.29971C35.4874 9.2435 35.2377 9.32466 35.078 9.51019C33.3267 11.1684 32.3135 13.4598 32.2654 15.8712C32.3135 18.2825 33.3267 20.5739 35.078 22.2321C35.2377 22.4177 35.4874 22.4988 35.7257 22.4426C35.9639 22.3864 36.151 22.2022 36.2109 21.9649C36.2708 21.7275 36.1936 21.4766 36.0105 21.3141C34.5038 19.8984 33.6273 17.938 33.577 15.8712Z"/>
   <path d="M37.9477 12.1025C37.8178 11.9868 37.6472 11.9275 37.4736 11.9375C37.2999 11.9476 37.1374 12.0263 37.0217 12.1562C35.0519 14.2412 35.0519 17.5012 37.0217 19.5861C37.1775 19.7611 37.4149 19.8397 37.6443 19.7923C37.8738 19.7449 38.0605 19.5786 38.1342 19.3562C38.2078 19.1338 38.1572 18.8889 38.0014 18.7139C36.474 17.1265 36.474 14.6158 38.0014 13.0284C38.1171 12.8985 38.1764 12.7279 38.1664 12.5543C38.1563 12.3806 38.0776 12.2181 37.9477 12.1025Z"/>
   <path d="M39.9661 14.1209C39.7238 13.8519 39.3093 13.8302 39.0402 14.0724C38.489 14.5066 38.1674 15.1695 38.1674 15.8712C38.1674 16.5728 38.489 17.2358 39.0402 17.67C39.2134 17.8322 39.4608 17.8883 39.687 17.8164C39.9133 17.7445 40.083 17.556 40.1308 17.3235C40.1786 17.091 40.0971 16.8508 39.9176 16.6955C39.6633 16.4935 39.5045 16.1949 39.4789 15.8712C39.5045 15.5475 39.6633 15.2489 39.9176 15.0469C40.1866 14.8046 40.2083 14.3901 39.9661 14.1209Z" />
   <path d="M30.2981 15.8712C30.2981 12.9858 31.5906 10.1974 34.036 7.81567C34.2037 7.65167 34.2713 7.41064 34.2131 7.18337C34.1549 6.95609 33.98 6.77711 33.7541 6.71383C33.5282 6.65056 33.2857 6.71261 33.1179 6.87661C30.4161 9.51018 28.9866 12.6205 28.9866 15.8712C28.9866 19.1218 30.4161 22.2321 33.1179 24.8657C33.3772 25.1192 33.793 25.1145 34.0465 24.8552C34.3 24.5959 34.2953 24.1802 34.036 23.9267C31.5906 21.5449 30.2981 18.7566 30.2981 15.8712Z" />
   <path d="M27.0193 15.8712C27.0193 12.2684 28.542 8.79802 31.4241 5.83787C31.5881 5.66989 31.65 5.42718 31.5866 5.20116C31.5231 4.97514 31.3439 4.80016 31.1164 4.74212C30.8889 4.68409 30.6477 4.75181 30.4837 4.9198C27.3596 8.13307 25.7077 11.9201 25.7077 15.8712C25.7077 19.8222 27.3596 23.6092 30.4837 26.8225C30.7373 27.0822 31.1533 27.0872 31.413 26.8337C31.6727 26.5801 31.6776 26.1641 31.4241 25.9044C28.542 22.9443 27.0193 19.474 27.0193 15.8712Z" />
   </g>
   <defs>
   <clipPath id="clip0_46606_135"> 
   <rect width="39.4231" height="39.3462" transform="translate(0.788452 0.788452)"/>
   </clipPath>
   </defs>
</symbol>
<symbol id="charging" width="41" height="41" viewBox="0 0 41 41"  xmlns="http://www.w3.org/2000/svg">
   <g clip-path="url(#clip0_46606_52)">  
   <path d="M27.031 4.73074H13.969C12.527 4.73074 11.3539 5.90383 11.3539 7.34588V36.8079C11.3539 38.2499 12.527 39.423 13.969 39.423H27.031C28.4731 39.423 29.6462 38.2499 29.6462 36.8079V7.34597C29.6462 5.90383 28.4731 4.73074 27.031 4.73074ZM28.3846 36.8079C28.3846 37.5542 27.7772 38.1616 27.031 38.1616H13.969C13.2228 38.1616 12.6154 37.5542 12.6154 36.8079V7.34597C12.6154 6.59977 13.2228 5.99234 13.969 5.99234H27.031C27.7773 5.99234 28.3847 6.59977 28.3847 7.34597V36.8079H28.3846Z"/>
   <path d="M23.9693 1.57693H17.0308C16.6825 1.57693 16.4 1.8594 16.4 2.20773V5.36155C16.4 5.70989 16.6825 5.99235 17.0308 5.99235H23.9693C24.3176 5.99235 24.6001 5.70989 24.6001 5.36155V2.20773C24.6 1.8594 24.3176 1.57693 23.9693 1.57693ZM23.3385 4.73075H17.6615V2.83844H23.3385V4.73075Z"/>
   <path d="M25.1319 18.8996C25.0161 18.7175 24.8155 18.6075 24.6 18.6075H20.8154V12.9306C20.8154 12.6349 20.6099 12.379 20.3213 12.315C20.0301 12.2512 19.738 12.396 19.613 12.6639L15.1976 22.1255C15.1065 22.3207 15.1215 22.5494 15.2373 22.731C15.3531 22.9132 15.5537 23.0231 15.7692 23.0231H19.5538V28.7C19.5538 28.9957 19.7593 29.2516 20.0479 29.3157C20.0938 29.3259 20.1396 29.3308 20.1849 29.3308C20.4257 29.3308 20.6509 29.1922 20.7562 28.9667L25.1716 19.5052C25.2627 19.3099 25.2477 19.0812 25.1319 18.8996ZM19.5538 21.7615H16.7597L19.5538 15.7738V21.7615ZM20.8154 25.857V19.8692H23.6095L20.8154 25.857Z"/>
    </g>
    <defs>
   <clipPath id="clip0_46606_52">
   <rect width="37.8462" height="37.8462" transform="translate(1.57692 1.57693)"/>
   </clipPath>
   </defs>
</symbol>
<symbol id="plug" width="41" height="41" viewBox="0 0 41 41"  xmlns="http://www.w3.org/2000/svg">
   <g clip-path="url(#clip0_46606_338)">
  <path  d="M30.5923 9.77691H28.7V3.46924C28.7 2.39691 27.88 1.57693 26.8077 1.57693C25.7353 1.57693 24.9154 2.39691 24.9154 3.46924V9.77691H16.0846V3.46924C16.0846 2.39691 15.2647 1.57693 14.1923 1.57693C13.12 1.57693 12.3 2.39691 12.3 3.46924V9.77691H10.4077C10.0293 9.77691 9.77697 10.0292 9.77697 10.4077V15.2015C9.77697 18.3553 10.9754 21.383 13.1201 23.7169C15.0124 25.8615 16.0847 28.6369 16.0847 31.4753V33.1153C16.0847 34.8815 17.4724 36.2692 19.2386 36.2692H19.8693V38.7923C19.8693 39.1707 20.1216 39.423 20.5001 39.423C20.8785 39.423 21.1308 39.1707 21.1308 38.7923V36.2692H21.7616C23.5277 36.2692 24.9154 34.8815 24.9154 33.1153V31.5384C24.9154 28.6369 25.9246 25.9246 27.8801 23.78C30.0247 21.4462 31.2232 18.3553 31.2232 15.2016V10.4077C31.2231 10.0293 30.9707 9.77691 30.5923 9.77691ZM26.1769 3.46924C26.1769 3.09078 26.4292 2.8385 26.8077 2.8385C27.1861 2.8385 27.4384 3.09078 27.4384 3.46924V9.77691H26.1769V3.46924ZM13.5615 3.46924C13.5615 3.15383 13.8138 2.8385 14.1923 2.8385C14.5707 2.8385 14.823 3.09078 14.823 3.46924V9.77691H13.5614V3.46924H13.5615ZM29.9615 15.1385C29.9615 18.04 28.9523 20.7524 26.9969 22.897C24.8523 25.2308 23.6539 28.3215 23.6539 31.4754V33.1154C23.6539 34.1878 22.8339 35.0077 21.7616 35.0077H19.2385C18.1662 35.0077 17.3462 34.1878 17.3462 33.1154V31.5385C17.3462 28.3847 16.1478 25.2939 14.0031 22.9601C12.1108 20.8154 11.0385 18.04 11.0385 15.2016V11.0385H12.9308H15.4538H25.5461H28.0692H29.9615V15.1385Z"/>
  <path d="M23.0231 17.977H19.4907L22.8338 14.6339C23.0861 14.3816 23.0861 14.0031 22.8338 13.7508C22.5815 13.4984 22.2031 13.4985 21.9507 13.7508L17.5354 18.1661C17.3461 18.3554 17.2831 18.6076 17.4092 18.86C17.4722 19.1123 17.7246 19.2385 17.9769 19.2385H21.5092L18.1661 22.5816C17.9138 22.8338 17.9138 23.2123 18.1661 23.4647C18.2923 23.5908 18.4184 23.6539 18.6076 23.6539C18.7968 23.6539 18.923 23.5908 19.0491 23.4647L23.4645 19.0493C23.6537 18.8601 23.7168 18.6078 23.5907 18.3554C23.5277 18.1031 23.2754 17.977 23.0231 17.977Z" />
  </g>
  <defs>
  <clipPath id="clip0_46606_338">
  <rect width="37.8462" height="37.8462" transform="translate(1.57692 1.57693)"/>
  </clipPath>
  </defs>
</symbol> 
</svg>


<svg> 
<symbol id="setting"  width="91" height="91" viewBox="0 0 91 91" xmlns="http://www.w3.org/2000/svg">
<rect width="91" height="91" rx="4"/>
<g clip-path="url(#clip0_2_30)">
<path d="M46 35.1111C39.9956 35.1111 35.1111 39.9955 35.1111 46C35.1111 52.0044 39.9956 56.8889 46 56.8889C52.0044 56.8889 56.8889 52.0044 56.8889 46C56.8889 39.9955 52.0044 35.1111 46 35.1111ZM46 55.3333C40.8534 55.3333 36.6667 51.1465 36.6667 46C36.6667 40.8534 40.8534 36.6666 46 36.6666C51.1466 36.6666 55.3333 40.8534 55.3333 46C55.3333 51.1465 51.1466 55.3333 46 55.3333Z" />
<path d="M64.8378 41.3333H63.2682C62.8677 39.8462 62.2789 38.4229 61.5104 37.089L62.6196 35.9799C63.0279 35.5716 63.2527 35.0279 63.2527 34.4508C63.2527 33.8729 63.0279 33.33 62.6196 32.9209L59.0783 29.3797C58.2617 28.5638 56.8376 28.5622 56.0193 29.3797L54.9102 30.4888C53.5756 29.7211 52.153 29.1323 50.6667 28.7318V27.1622C50.6667 25.9699 49.6968 25 48.5044 25H43.4956C42.3032 25 41.3333 25.9699 41.3333 27.1622V28.7318C39.847 29.1323 38.4244 29.7211 37.089 30.4896L35.9799 29.3804C35.1624 28.5622 33.7376 28.5638 32.9209 29.3804L29.3797 32.9217C28.9713 33.33 28.7466 33.8737 28.7466 34.4516C28.7466 35.0287 28.9713 35.5716 29.3797 35.9807L30.4888 37.0898C29.7211 38.4229 29.1316 39.8462 28.7318 41.3333H27.1622C25.9699 41.3333 25 42.3032 25 43.4956V48.5037C25 49.6968 25.9699 50.6667 27.1622 50.6667H28.7318C29.1323 52.153 29.7211 53.5756 30.4896 54.911L29.3804 56.0201C28.9721 56.4284 28.7473 56.9721 28.7473 57.5492C28.7473 58.1271 28.9721 58.67 29.3804 59.0791L32.9217 62.6203C33.7383 63.4378 35.1632 63.4386 35.9807 62.6203L37.0898 61.5112C38.4252 62.2789 39.8478 62.8684 41.3341 63.269V64.8386C41.3341 66.0309 42.304 67.0008 43.4963 67.0008H48.5044C49.6968 67.0008 50.6667 66.0309 50.6667 64.8386V63.269C52.153 62.8684 53.5756 62.2797 54.911 61.5112L56.0201 62.6203C56.8383 63.4386 58.2617 63.437 59.0791 62.6203L62.6203 59.0791C63.0287 58.6708 63.2534 58.1271 63.2534 57.5492C63.2534 56.9721 63.0287 56.4292 62.6203 56.0201L61.5112 54.911C62.2789 53.5756 62.8684 52.153 63.269 50.6667H64.8386C66.0309 50.6667 67.0008 49.6968 67.0008 48.5044V43.4956C67 42.3032 66.0301 41.3333 64.8378 41.3333ZM65.4444 48.5044C65.4444 48.8389 65.1722 49.1111 64.8378 49.1111H62.044L61.904 49.7123C61.4988 51.4522 60.8159 53.1034 59.8717 54.6209L59.545 55.1451L61.5198 57.1199C61.757 57.3571 61.757 57.7421 61.5198 57.9786L57.9786 61.5198C57.7421 61.7562 57.3571 61.7578 57.1199 61.5198L55.1451 59.545L54.6209 59.8717C53.1042 60.8159 51.453 61.4996 49.7123 61.904L49.1111 62.044V64.8378C49.1111 65.1722 48.8389 65.4444 48.5044 65.4444H43.4956C43.1611 65.4444 42.8889 65.1722 42.8889 64.8378V62.044L42.2877 61.904C40.5478 61.4988 38.8966 60.8159 37.3791 59.8717L36.8549 59.545L34.8801 61.5198C34.6421 61.7578 34.2571 61.7562 34.0214 61.5198L30.4802 57.9786C30.243 57.7413 30.243 57.3563 30.4802 57.1199L32.455 55.1451L32.1283 54.6209C31.1841 53.1042 30.5004 51.453 30.096 49.7123L29.956 49.1111H27.1622C26.8278 49.1111 26.5556 48.8389 26.5556 48.5044V43.4956C26.5556 43.1611 26.8278 42.8889 27.1622 42.8889H29.956L30.096 42.2877C30.5012 40.547 31.1841 38.8958 32.1283 37.3791L32.455 36.8549L30.4802 34.8801C30.243 34.6429 30.243 34.2579 30.4802 34.0214L34.0214 30.4802C34.2579 30.2438 34.6429 30.2422 34.8801 30.4802L36.8549 32.455L37.3791 32.1283C38.8958 31.1841 40.547 30.5004 42.2877 30.096L42.8889 29.956V27.1622C42.8889 26.8278 43.1611 26.5556 43.4956 26.5556H48.5037C48.8389 26.5556 49.1111 26.8278 49.1111 27.1622V29.956L49.7123 30.096C51.4522 30.5012 53.1034 31.1841 54.6209 32.1283L55.1451 32.455L57.1199 30.4802C57.3579 30.2422 57.7429 30.2438 57.9786 30.4802L61.5198 34.0214C61.757 34.2587 61.757 34.6437 61.5198 34.8801L59.545 36.8549L59.8717 37.3791C60.8159 38.895 61.4996 40.5462 61.904 42.2877L62.044 42.8889H64.8378C65.1722 42.8889 65.4444 43.1611 65.4444 43.4956V48.5044Z"/>
<path d="M46 38.2222C41.7113 38.2222 38.2222 41.7113 38.2222 45.9999C38.2222 50.2886 41.7113 53.7777 46 53.7777C50.2887 53.7777 53.7778 50.2886 53.7778 45.9999C53.7778 41.7113 50.2887 38.2222 46 38.2222ZM46 52.2222C42.5692 52.2222 39.7778 49.4307 39.7778 45.9999C39.7778 42.5692 42.5692 39.7777 46 39.7777C49.4308 39.7777 52.2222 42.5692 52.2222 45.9999C52.2222 49.4307 49.4308 52.2222 46 52.2222Z" />
</g>
<defs>
<clipPath id="clip0_2_30">
<rect width="42" height="42" transform="translate(25 25)"/>
</clipPath>
</defs>
<symbol/>
</svg>




<svg>
<symbol id="Bluetooth" width="32" height="32" viewBox="0 0 32 32"  xmlns="http://www.w3.org/2000/svg">
<g clip-path="url(#clip0_46977_247)">
<path d="M22.2054 21.5212L17.1636 16L22.2054 10.4794C22.3637 10.3056 22.4445 10.0739 22.4276 9.83901C22.4107 9.60388 22.2984 9.38591 22.1163 9.23643L15.9874 4.19591C15.7305 3.98455 15.3753 3.94016 15.0746 4.08252C14.7739 4.22427 14.5823 4.52671 14.5823 4.85924V13.1736L11.0639 9.32043C10.7443 8.97018 10.2004 8.94552 9.85017 9.26544C9.49992 9.58537 9.47526 10.1286 9.79518 10.4792L14.5823 15.7217V16.2784L9.79523 21.5212C9.47503 21.8711 9.49968 22.4147 9.85022 22.7349C10.2007 23.0551 10.7441 23.0304 11.064 22.6796L14.5821 18.827V27.1408C14.5821 27.473 14.774 27.7757 15.0744 27.9178C15.1913 27.9728 15.3167 28 15.4413 28C15.6369 28 15.8305 27.9336 15.9874 27.8047L22.1163 22.7641C22.2984 22.6143 22.4107 22.3964 22.4276 22.1615C22.4445 21.9267 22.3643 21.695 22.2054 21.5212ZM16.3007 6.67837L20.326 9.98854L16.3007 14.3968V6.67837ZM16.3007 25.3216V17.6035L20.326 22.0115L16.3007 25.3216Z"/>
</g>
<defs>
<clipPath id="clip0_46977_247">
<rect width="24" height="24"  transform="translate(4 4)"/>
</clipPath>
</defs>
</symbol>

<symbol id="range" width="32" height="32" viewBox="0 0 32 32" xmlns="http://www.w3.org/2000/svg">
<g clip-path="url(#clip0_46977_338)">
<path d="M9.25 8.5C6.355 8.5 4 10.855 4 13.75C4 16.444 8.212 21.2155 8.692 21.751C8.8345 21.9085 9.037 22 9.25 22C9.463 22 9.6655 21.9085 9.808 21.751C10.288 21.2155 14.5 16.444 14.5 13.75C14.5 10.855 12.145 8.5 9.25 8.5ZM9.25 20.1055C7.612 18.163 5.5 15.181 5.5 13.75C5.5 11.683 7.183 10 9.25 10C11.317 10 13 11.683 13 13.75C13 15.1795 10.888 18.163 9.25 20.1055Z" />
<path d="M9.25 11.5C8.0095 11.5 7 12.5095 7 13.75C7 14.9905 8.0095 16 9.25 16C10.4905 16 11.5 14.9905 11.5 13.75C11.5 12.5095 10.4905 11.5 9.25 11.5ZM9.25 14.5C8.836 14.5 8.5 14.164 8.5 13.75C8.5 13.336 8.836 13 9.25 13C9.664 13 10 13.336 10 13.75C10 14.164 9.664 14.5 9.25 14.5Z" />
<path d="M27.25 4H21.25C20.836 4 20.5 4.336 20.5 4.75V9.25V12.25C20.5 12.664 20.836 13 21.25 13C21.664 13 22 12.664 22 12.25V10H27.25C27.664 10 28 9.664 28 9.25V4.75C28 4.336 27.664 4 27.25 4ZM26.5 8.5H22V5.5H26.5V8.5Z" />
<path d="M25 20.5H17.5C16.6735 20.5 16 19.8265 16 19C16 18.1735 16.6735 17.5 17.5 17.5H19.138C19.4485 18.3715 20.2735 19 21.25 19C22.4905 19 23.5 17.9905 23.5 16.75C23.5 15.5095 22.4905 14.5 21.25 14.5C20.2735 14.5 19.4485 15.1285 19.138 16H17.5C15.8455 16 14.5 17.3455 14.5 19C14.5 20.6545 15.8455 22 17.5 22H25C25.8265 22 26.5 22.6735 26.5 23.5C26.5 24.3265 25.8265 25 25 25H11.362C11.0515 24.1285 10.2265 23.5 9.25 23.5C8.0095 23.5 7 24.5095 7 25.75C7 26.9905 8.0095 28 9.25 28C10.2265 28 11.0515 27.3715 11.362 26.5H25C26.6545 26.5 28 25.1545 28 23.5C28 21.8455 26.6545 20.5 25 20.5ZM21.25 16C21.664 16 22 16.336 22 16.75C22 17.164 21.664 17.5 21.25 17.5C20.836 17.5 20.5 17.164 20.5 16.75C20.5 16.336 20.836 16 21.25 16ZM9.25 26.5C8.836 26.5 8.5 26.164 8.5 25.75C8.5 25.336 8.836 25 9.25 25C9.664 25 10 25.336 10 25.75C10 26.164 9.664 26.5 9.25 26.5Z" />
</g>
<defs>
<clipPath id="clip0_46977_338">
<rect width="24" height="24"  transform="translate(4 4)"/>
</clipPath>
</defs>
</symbol>

<symbol id="charger" width="32" height="32" viewBox="0 0 32 32" xmlns="http://www.w3.org/2000/svg">
<g clip-path="url(#clip0_46977_286)">
<path d="M26.08 11.2274V9.12612C26.08 8.73628 25.7639 8.42024 25.3741 8.42024H22.096C21.7061 8.42024 21.3901 8.73628 21.3901 9.12612V11.2274C21.0301 11.2596 20.7478 11.5617 20.7478 11.9301V15.7258C20.7478 16.5907 21.4515 17.2943 22.3164 17.2943H23.0292V24.8141C23.0292 25.7924 22.2331 26.5882 21.2546 26.5882H13.5383C12.5601 26.5882 11.7642 25.7924 11.7642 24.8141V23.2941H13.2654C13.6552 23.2941 13.9713 22.9781 13.9713 22.5882V20.298H14.7211C15.8887 20.298 16.8387 19.348 16.8387 18.1804V11.7782C16.8387 10.8261 16.2069 10.0189 15.3407 9.75327V7.33271C15.3407 6.94287 15.0246 6.62682 14.6348 6.62682H13.647V4.70588C13.647 4.31605 13.331 4 12.9412 4C12.5513 4 12.2353 4.31605 12.2353 4.70588V6.62682H9.88139V4.70588C9.88139 4.31605 9.56534 4 9.17551 4C8.78567 4 8.46963 4.31605 8.46963 4.70588V6.62682H7.48186C7.09202 6.62682 6.77598 6.94287 6.77598 7.33271V9.75327C5.90967 10.0189 5.27795 10.826 5.27795 11.7782V18.1804C5.27795 19.348 6.22793 20.298 7.3956 20.298H8.14539V22.5882C8.14539 22.9781 8.46144 23.2941 8.85127 23.2941H10.3524V24.8141C10.3524 26.5708 11.7816 28 13.5383 28H21.2546C23.0115 28 24.4409 26.5708 24.4409 24.8141V17.2943H25.1535C26.0184 17.2943 26.722 16.5907 26.722 15.7258V11.9301C26.722 11.5618 26.4398 11.2598 26.08 11.2274ZM13.9289 8.03859V9.66056H8.18774V8.03859H13.9289ZM6.68967 18.1804V11.7782C6.68967 11.389 7.00633 11.0723 7.39555 11.0723H14.7211C15.1103 11.0723 15.4269 11.389 15.4269 11.7782V18.1804C15.4269 18.5696 15.1103 18.8863 14.7211 18.8863C14.4252 18.8863 7.73245 18.8863 7.39555 18.8863C7.00633 18.8863 6.68967 18.5696 6.68967 18.1804ZM9.55715 20.298H12.5595V21.8824H9.55715V20.298ZM24.6682 9.832V11.2242H22.8019V9.832H24.6682ZM25.3103 15.7258C25.3103 15.8122 25.2399 15.8825 25.1535 15.8825C25.0671 15.8825 23.1153 15.8825 22.3164 15.8825C22.2299 15.8825 22.1596 15.8122 22.1596 15.7258V12.636H25.3103V15.7258Z"/>
<path d="M10.1638 15.6851H10.8799L10.5678 16.4089C10.4134 16.7669 10.5785 17.1823 10.9364 17.3366C11.295 17.4911 11.7099 17.3255 11.8641 16.9679L12.6011 15.2588C12.802 14.7928 12.4593 14.2734 11.9529 14.2734H11.2368L11.5489 13.5496C11.7033 13.1917 11.5382 12.7763 11.1802 12.6219C10.8222 12.4676 10.4069 12.6327 10.2526 12.9906L9.51558 14.6998C9.31464 15.1657 9.65741 15.6851 10.1638 15.6851Z" />
</g>
<defs>
<clipPath id="clip0_46977_286">
<rect width="24" height="24" transform="translate(4 4)"/>
</clipPath>
</defs>
</symbol>

<symbol id="weight" width="32" height="32" viewBox="0 0 32 32" xmlns="http://www.w3.org/2000/svg">
<g clip-path="url(#clip0_46977_217)">
<path d="M24.3373 10.3997H18.9742C19.5392 9.7226 19.88 8.85193 19.88 7.90308C19.88 5.75085 18.1292 4 15.9771 4C13.8249 4 12.074 5.75085 12.074 7.90308C12.074 8.85193 12.4148 9.7226 12.9799 10.3997H7.6167L4.28125 28H27.6728L24.3373 10.3997ZM15.9771 5.40625C17.3537 5.40625 18.4738 6.52631 18.4738 7.90308C18.4738 9.27966 17.3537 10.3997 15.9771 10.3997C14.6003 10.3997 13.4803 9.27966 13.4803 7.90308C13.4803 6.52631 14.6003 5.40625 15.9771 5.40625ZM8.78143 11.806H23.1726L25.975 26.5938H5.979L8.78143 11.806Z" />
<path d="M16.0055 16.4026H14.4094L12.1779 18.631V16.4026H11.0309V22.0225H12.1779V20.1017L12.7563 19.5377L14.5044 22.0225H15.985L13.5753 18.7496L16.0055 16.4026Z" />
<path d="M18.2747 20.0007H19.7903V20.617C19.6685 20.7058 19.5026 20.793 19.2955 20.8766C19.0436 20.9786 18.7817 21.0303 18.5177 21.0303C18.2154 21.0303 17.9261 20.9627 17.6575 20.8294C17.3986 20.701 17.2063 20.5092 17.0701 20.2426C16.9294 19.9677 16.8582 19.6152 16.8582 19.195C16.8582 18.8546 16.9186 18.5355 17.0371 18.2474C17.1041 18.0872 17.1995 17.938 17.3207 17.8034C17.4363 17.6752 17.5936 17.569 17.7878 17.4879C17.9858 17.4053 18.2277 17.3634 18.5071 17.3634C18.7347 17.3634 18.9432 17.4028 19.1269 17.4804C19.3016 17.5542 19.4356 17.6511 19.5251 17.7681C19.6222 17.8948 19.7062 18.0775 19.7751 18.3113L19.8395 18.5302L20.8955 18.2405L20.8386 18.0191C20.7417 17.6419 20.5959 17.329 20.4052 17.0886C20.2094 16.8419 19.939 16.6482 19.601 16.5127C19.2736 16.3814 18.9044 16.3149 18.5036 16.3149C17.9539 16.3149 17.4592 16.4307 17.0331 16.6588C16.5969 16.8925 16.2585 17.2534 16.028 17.7314C15.8037 18.1962 15.6902 18.7026 15.6902 19.2373C15.6902 19.7786 15.8052 20.277 16.0324 20.7184C16.2648 21.1703 16.6132 21.5203 17.0684 21.7587C17.5139 21.9921 18.0145 22.1106 18.5563 22.1106C18.9579 22.1106 19.3547 22.0375 19.7357 21.8932C20.1131 21.7506 20.4832 21.5356 20.8356 21.2546L20.9233 21.1848V18.9271L18.2747 18.9313V20.0007Z" />
</g>
<defs>
<clipPath id="clip0_46977_217">
<rect width="24" height="24"  transform="translate(4 4)"/>
</clipPath>
</defs>
</symbol>

<symbol id="guarantee" width="32" height="32" viewBox="0 0 32 32"  xmlns="http://www.w3.org/2000/svg">
<path d="M28 5.78125H4V23.2266H18.7643V26.2543L21.3884 24.9725L24.0125 26.2543V23.2266H28V5.78125ZM21.3884 20.413C20.0701 20.413 18.9978 19.3406 18.9978 18.0224C18.9978 16.7042 20.0701 15.6318 21.3884 15.6318C22.7066 15.6318 23.7791 16.7042 23.7791 18.0224C23.7791 19.3406 22.7066 20.413 21.3884 20.413ZM21.3884 23.4075L20.1706 24.0023V21.6177C20.5531 21.7477 20.9623 21.8193 21.3884 21.8193C21.8143 21.8193 22.2236 21.7477 22.6063 21.6177V24.0023L21.3884 23.4075ZM26.5938 21.8204H24.0125V20.7626C24.7343 20.071 25.1853 19.0987 25.1853 18.0224C25.1853 15.9288 23.4821 14.2255 21.3884 14.2255C19.2948 14.2255 17.5916 15.9288 17.5916 18.0224C17.5916 19.0987 18.0424 20.0712 18.7643 20.7626V21.8204H5.40625V7.1875H26.5938V21.8204Z" />
<path d="M6.81415 11.4106H25.1859V12.8169H6.81415V11.4106Z" />
<path d="M8.92517 8.59595H23.0748V10.0022H8.92517V8.59595Z" />
<path d="M6.81415 19.0056H13.6544V20.4119H6.81415V19.0056Z"/>
<path d="M6.81415 16.1908H13.6544V17.597H6.81415V16.1908Z" />
</symbol>

</svg>
